<svg version="1" xmlns="http://www.w3.org/2000/svg" width="1068" height="1068" viewBox="0 0 801.000000 801.000000"><path d="M0 401v400h800V1H0v400zm412.3-187.6c2.9 1.5 6.4 3.6 7.9 4.9l2.8 2.3-5.3 3.5-5.3 3.5-4.4-2.3c-26-13.8-53 37.6-62.4 118.8-2.1 17.8-3.8 56.3-3 66.1.5 5.8.3 7.8-.6 7.8-.6 0-3.8-1.9-7.1-4.1l-5.9-4.2v-6.1c.1-24.9 3.1-61.6 7.1-85.1 13-77.7 44.4-121 76.2-105.1zm36 16.4c8.8 4.9 14 16.1 11.8 25.4-3 12.7-15.6 21.4-28 19.3-6.8-1.1-14-6.3-17.4-12.4-12-21.4 11.9-44.5 33.6-32.3zm6.6 53.8c.7 2.6 1.1 4.8.9 4.9-1.1.9-10.9 3.5-11.6 3.1-.5-.3-1.2-1.8-1.5-3.3-.3-1.6-.9-3.6-1.2-4.6-.5-1.2-.2-1.7 1.1-1.7 1.1 0 3.7-.9 5.9-1.9 2.2-1 4.3-1.7 4.6-1.5.4.2 1.2 2.5 1.8 5zM298 289.4c9.2 1.4 29.7 5.9 30.4 6.7.2.2-.1 3-.7 6.1-.7 3.8-1.5 5.8-2.5 5.8-.7 0-4.8-.9-9-2-22.5-5.7-48.1-7.1-60.2-3.2-11.4 3.7-15.4 9.3-14.8 20.6 1.3 25.7 40.2 68 97.3 106 14.8 9.9 23.1 14.9 43.3 26.3 2.4 1.4 4 2.8 3.5 3.2-.4.4-3.5 1.9-6.8 3.5l-6.1 2.8-7.4-4.3c-40.4-22.8-82.7-55.1-105.3-80.3-22.3-24.9-32.6-45.1-31.5-62.1.6-8.6 3-13.6 9.3-19.4 8.6-7.9 19-10.9 38.5-11 6.9-.1 16.8.6 22 1.3zm242.3.1c32.7 6.9 39.5 32.6 17.5 66.6-6.9 10.7-15.8 21.6-25 30.7l-6.4 6.3-4.8-4.2-4.7-4.1 9.4-9.7c25.1-25.9 36.3-49.2 29.8-61.9-2.4-4.7-4.5-6.6-10.3-9.2-20.9-9.2-67.8-.8-120.8 21.6l-11.2 4.7 8.9 4.7c4.9 2.6 13.8 7.7 19.8 11.3 6.1 3.6 11.1 6.4 11.3 6.2.2-.2-.4-5.7-1.2-12.3-.9-6.6-1.6-12.3-1.6-12.5 0-1.1 11.3-4.8 12.1-4 .4.4 1.7 9.3 2.9 19.8 1.1 10.4 2.2 19 2.3 19 3.1 1.7 23.2 16.4 32.6 23.8 14.8 11.7 42.3 39 50.3 49.7 7.4 10.1 14.2 22.1 16.9 30 3.2 9.3 3.2 20.7 0 27.7-4.7 10.5-15.8 17.2-32.8 19.8l-4.3.7v-13l5.3-.6c7.5-1 14.9-4.7 18.3-9.2 2.6-3.4 2.9-4.5 2.9-11.3 0-7-.4-8.4-4.6-17.1-11.1-22.9-36.2-49.3-73-76.8-5.3-4-9.9-7.2-10.2-7.2-.4 0-.7 9.9-.7 22s.3 22 .6 22 5.1-3.3 10.5-7.4l9.8-7.4 4.6 3.6c2.5 2.1 4.5 4.1 4.5 4.7-.1.9-18.9 15.2-27.2 20.6-4.2 2.7-3.7.6-6.4 25.4-.9 8.2-1.9 15.4-2.3 15.8-.6.6-10.7-2.6-11.9-3.7-.1-.2.5-5.8 1.3-12.6.9-6.7 1.5-12.4 1.3-12.5-.2-.2-3.5 1.6-7.3 3.9-11.4 6.9-33.9 18.8-49.5 26.1-48.4 22.6-90.1 34.5-121 34.5-18.5 0-30.1-3.4-38.6-11.2-7.4-6.8-8.9-10.6-8.9-22.3.1-8.6.5-11 2.9-17 1.6-3.9 3.7-8.5 4.8-10.3l2-3.2 3.2 2.7c1.8 1.6 4.1 3.2 5 3.8 1.6.9 1.5 1.6-1.6 8-4.3 9.3-5.1 19.4-1.9 25.2 4.6 8.1 14.6 11.6 32.6 11.6 40.9-.2 103.6-22.4 162-57.6 16.7-10 17-10.3 17.7-14.2.9-5.2.9-51.8 0-57-.7-3.7-1.4-4.4-10.2-9.9-5.2-3.3-17.5-10.4-27.4-15.7l-17.8-9.8-8.9 4.4c-4.8 2.5-14.7 7.9-21.9 12-7.3 4.2-13.4 7.4-13.6 7.2-.3-.2-.1-3.6.2-7.6l.7-7.2 10.6-5.9c5.8-3.2 12.2-6.8 14.1-7.9l3.5-1.9-4-1.8c-2.2-.9-7.6-3.2-12-5-4.4-1.8-8-3.7-8-4.1.3-5.2 1.9-11.3 3.1-11.3 1.3 0 27 10.7 32.6 13.6 2.7 1.4 3.5 1.1 15.5-4.2 31.8-14.1 62.7-23.9 88-27.8 11.9-1.9 32.1-1.9 40.6-.1zM191 317.3v16.2l-58.7 33.7c-32.4 18.5-58.7 34-58.7 34.4.1.4 26.6 16.1 58.8 34.8l58.6 33.9v15.9c0 9-.4 15.8-.9 15.8-1.1 0-171-97.8-172.9-99.5-1-.9 16.9-11.6 85.5-51.3 47.7-27.5 87.1-50.1 87.6-50.1.4-.1.7 7.2.7 16.2zm504 33.6c47.5 27.4 86.5 50.2 86.7 50.7.3 1-171.7 100.4-173.6 100.4-.8 0-1.1-4.8-1.1-15.9v-15.8l59-33.9c32.5-18.6 58.9-34.2 58.8-34.6-.2-.5-26.6-16.1-58.8-34.7l-58.5-34-.3-16c-.1-8.9.1-16.1.5-16.1.5 0 39.7 22.4 87.3 49.9zm-280.9 17.3c7.6 3.5 12.9 8.5 17 16 3.3 6 3.4 6.8 3.4 16.8s-.1 10.8-3.4 16.8c-4.1 7.5-9.4 12.5-17 16.1-4.8 2.2-6.9 2.6-15.1 2.6-8.4 0-10.1-.3-15-2.8-7.6-3.9-14.3-10.8-17.6-18.1-2.4-5.1-2.8-7.5-2.9-14.6 0-7.3.4-9.4 2.8-14.5 2.8-5.9 7.6-11.8 13-15.7 8.8-6.4 24.3-7.6 34.8-2.6zM319 378.5v7.4l-5.2 4-5.2 3.9-4.8-4c-2.6-2.2-4.8-4.2-4.8-4.4 0-.6 18.4-14.4 19.3-14.4.4 0 .7 3.4.7 7.5zm-48 33.9c12.7 6.3 14.8 24.2 4 34-13.9 12.5-36 2.4-36-16.6 0-5 4.4-13.1 8.8-16.2 7.2-5 15-5.4 23.2-1.2zm68.6 46.3c6 3.6 6.4 4.1 6.9 8.3.4 2.5.9 5.2 1.1 6.2.4 1.2-.8 2-4.8 3.4-2.9.9-5.8 1.9-6.4 2.1-.8.3-1.6-2.6-2.3-8.4-.7-4.8-1.4-10.3-1.7-12.1-.3-1.7-.2-3.2.2-3.2s3.6 1.7 7 3.7zm96.3 22.2c7.8 3.3 35.7 12.5 40.9 13.6 3.7.8 3.6.4 2.1 7.9-.9 4.4-1.5 5.5-2.8 5.2-22.7-6.5-44.1-14-57.6-20.1l-6-2.7 6.5-3.3c3.6-1.9 7.2-3.4 8.1-3.5.9 0 4.8 1.3 8.8 2.9zm79.5 10.9c12.1 8.4 10.1 25.9-3.6 31.7-10.1 4.2-21.9-1.9-24.8-12.6-4.4-16.1 14.6-28.8 28.4-19.1zm-156.1 33c20.4 62.9 48.1 71.7 71.3 22.7 4.2-8.9 12.4-32 12.4-35 0-.7.4-1.7 1-2 1.1-.7 12 2.5 12 3.6 0 1.7-6.3 21-9.6 29.3-10.1 25.5-24.6 43-39.2 47.2-19.8 5.8-40-11-54.1-44.9-4.2-10.2-10.1-28.2-10.1-31 0-1.4 6.5-4.2 10.5-4.6.6 0 3.1 6.5 5.8 14.7z"/></svg>